# xmcd CD database file
#
# Track frame offsets:
#	150
#	104007
#	171950
#
# Disc length: 2803 seconds
#
# Revision: 0
# Processed by: cddbd v1.5.2PL0 Copyright (c) Steve Scherf et al.
# Submitted via: CDex 1.70beta3
#
DISCID=230af103
DTITLE=Takagi Motohiko - 不屈の民
DYEAR=1996
DGENRE=Jazz
TTITLE0=Imprivisation 1
TTITLE1=Imprivisation 2
TTITLE2=The People United Will Never Be Defeated! - 不屈の民
EXTD=YEAR: 1996
EXTT0=
EXTT1=
EXTT2=
PLAYORDER=
